<svg width="32" height="32" viewBox="0 0 32 32" fill="none" xmlns="http://www.w3.org/2000/svg">
<g clip-path="url(#clip0_373:772)">
<path d="M18.7497 7.01292C18.7497 7.01292 23.8626 7.9202 27.2901 15.7389C27.2901 15.7389 31.4906 17.4275 31.0709 19.8201C30.6513 22.2128 28.2696 30.9387 15.6688 31.9233C3.06804 32.9079 1.10756 24.0436 1.10756 24.0436C1.10756 24.0436 -0.992326 16.8649 4.60811 11.2349C4.60811 11.2349 6.96172 8.78108 10.0212 7.90326C9.57496 6.84354 8.03563 5.60119 11.1888 1.94703C14.3832 -1.75646 15.9093 1.38366 15.9093 1.38366C15.9093 1.38366 17.3476 2.22835 14.5477 4.76166C14.2043 5.05233 13.936 5.42132 13.7656 5.83741C13.5953 6.25351 13.5278 6.70446 13.5689 7.15211C13.5689 7.15211 16.1202 2.8197 18.8124 3.65775C21.9434 4.63278 17.13 6.34719 16.9898 7.89516C16.9898 7.89663 17.6706 6.76106 18.7497 7.01292Z" fill="#AB49CC"/>
<path d="M7.89328 21.9287C7.59825 21.5097 7.6366 20.9492 7.93458 20.5332C8.29895 20.025 9.04095 19.24 10.2019 19.0986C11.292 18.9668 12.1137 19.6981 12.5769 20.2651C12.925 20.6922 13.167 21.3859 12.8874 21.8617C12.5526 22.4346 11.6564 22.9663 10.0957 22.8463C8.79755 22.7483 8.18241 22.3396 7.89328 21.9287Z" fill="#DB8A16" stroke="#410100" stroke-miterlimit="10"/>
<path d="M15.0669 18.835C15.0669 18.835 15.0227 17.0602 16.6808 16.9873C18.3388 16.9144 18.5004 19.0825 18.5004 19.0825C18.5004 19.0825 19.1878 16.4821 17.1263 16.0484C17.1263 16.0491 14.5359 15.6161 15.0669 18.835Z" fill="#410100"/>
<path d="M3.27897 18.8348C3.27897 18.8348 3.27897 17.0107 4.93779 16.9937C6.76329 16.9746 6.71461 19.0837 6.71461 19.0837C6.71461 19.0837 7.4013 16.4834 5.33977 16.0496C5.33977 16.0489 2.74939 15.6159 3.27897 18.8348Z" fill="#410100"/>
<path opacity="0.25" d="M0.748355 21.6319C0.748355 21.6319 0.884805 33.3602 16.8017 31.8225C16.8017 31.8225 28.0011 31.5088 31.1004 20.6325C31.1004 20.6325 29.1311 23.847 24.8495 26.3273C20.5678 28.8076 13.5321 28.9667 13.5321 28.9667C13.5321 28.9667 7.69118 28.8621 4.17588 26.032C1.35391 23.7594 0.721802 20.1016 0.721802 20.1016L0.748355 21.6319Z" fill="black"/>
<g opacity="0.35">
<g opacity="0.35">
<path opacity="0.35" d="M10.2889 8.28857C10.2889 8.28857 5.01597 10.6032 2.09442 16.0704C2.09442 16.0704 3.57105 10.5612 10.2889 8.28857Z" fill="white"/>
</g>
</g>
<path opacity="0.25" d="M22.979 20.3739C22.979 20.3739 23.9496 21.8608 25.0376 21.8608C25.8895 21.8608 26.2678 21.5441 26.8505 19.8555C26.8505 19.8555 27.5741 22.0301 25.8127 22.8601C24.0514 23.69 23.316 21.3305 22.979 20.3739Z" fill="black"/>
<path d="M22.3594 18.0964C22.3594 18.0964 21.6218 21.6312 24.0507 23.6932C24.0507 23.6932 26.3231 25.2242 27.0674 22.6401C28.2556 18.5161 26.2708 17.5713 26.2708 17.5713C26.6006 18.1432 26.7958 18.7825 26.8415 19.4409C26.8873 20.0992 26.7824 20.7594 26.5348 21.3713C25.6888 23.4826 24.1561 22.2159 24.1561 22.2159C24.1561 22.2159 22.782 20.9971 22.3594 18.0964Z" fill="#410100"/>
<path opacity="0.13" d="M23.5675 21.0848C23.5675 21.0848 24.2682 21.8403 25.0139 21.8602C25.6667 21.8786 25.9197 21.6062 25.9197 21.6062C25.9197 21.6062 26.3047 21.3241 26.6314 20.4448C26.6314 20.4448 26.1557 21.3153 25.7685 21.4913C25.5215 21.5996 25.2579 21.6651 24.9888 21.685C24.9888 21.685 24.418 21.7829 23.5675 21.0848Z" fill="white"/>
<path opacity="0.35" d="M17.602 7.67309L18.4738 7.22607C18.4738 7.22607 21.6454 7.4632 24.4999 10.8942L25.5044 12.6882C25.5044 12.6882 21.5532 7.62006 17.602 7.67309Z" fill="white"/>
<path d="M14.1477 0.514531C15.0225 0.514531 15.5292 1.27011 15.5491 1.30251C15.569 1.33491 15.603 1.38131 15.6303 1.4196C15.8073 1.66925 16.2764 2.58316 14.8979 3.8778C14.0228 4.68245 13.4212 5.73982 13.1771 6.90231L13.1675 6.9487C13.1444 7.07223 13.1656 7.19995 13.2276 7.30937C13.2895 7.41878 13.3881 7.50289 13.506 7.54688C13.6239 7.59087 13.7535 7.59192 13.8721 7.54986C13.9907 7.5078 14.0907 7.42531 14.1544 7.31692C14.5839 6.58658 15.0852 5.90077 15.6509 5.26965C16.5626 4.27326 17.4388 3.74598 18.1852 3.74598C18.5105 3.74804 18.8279 3.8459 19.0976 4.02729C19.5298 4.30345 19.7895 4.57814 19.7909 4.76372C19.7954 5.11131 19.0143 5.63639 18.4434 6.01933C17.9669 6.33968 17.4742 6.67107 17.1438 7.03855C17.0498 7.13844 16.9681 7.2492 16.9004 7.36847C16.8407 7.48652 16.8287 7.62297 16.8669 7.74959C16.9051 7.87622 16.9906 7.98334 17.1057 8.04879C17.2208 8.11424 17.3567 8.13302 17.4853 8.10125C17.6139 8.06947 17.7253 7.98957 17.7965 7.87807C17.8289 7.82593 17.8657 7.77666 17.9064 7.73079C17.9792 7.64998 18.0683 7.58549 18.1678 7.54157C18.2674 7.49765 18.3751 7.47529 18.484 7.47598C18.5721 7.47687 18.6598 7.48849 18.7451 7.5106L18.7937 7.52017C18.807 7.52017 20.0985 7.72784 21.744 8.85605C22.7533 9.56025 23.6525 10.4097 24.4126 11.3768C25.4231 12.645 26.2897 14.1753 26.9868 15.9184C27.0138 15.9846 27.0538 16.0448 27.1045 16.0954C27.1552 16.146 27.2154 16.186 27.2818 16.213C27.3179 16.2277 30.876 17.7668 30.7602 19.7846C30.6643 21.463 29.8441 24.0559 27.8313 26.2917C26.6239 27.6342 25.1022 28.7374 23.3033 29.5703C21.1628 30.5696 18.6152 31.1845 15.7313 31.4084C15.0918 31.4578 14.4612 31.4821 13.8564 31.4821C11.4401 31.4821 9.29373 31.0829 7.47708 30.2964C6.07923 29.7036 4.82252 28.8228 3.78919 27.7116C2.06842 25.8447 1.62144 23.9455 1.61776 23.9278C1.61407 23.9101 1.61259 23.9057 1.6089 23.8946C1.60522 23.8836 1.10883 22.1618 1.27626 19.7832C1.36828 18.4169 1.67544 17.0736 2.18643 15.8028C2.83242 14.2261 3.7902 12.7957 5.0025 11.597L5.01061 11.5897C5.03274 11.5661 7.28604 9.24562 10.1737 8.41198C10.2686 8.38476 10.3538 8.33089 10.419 8.25678C10.4843 8.18267 10.5268 8.09142 10.5417 7.99388C10.5565 7.89633 10.543 7.79659 10.5027 7.70648C10.4625 7.61638 10.3971 7.5397 10.3145 7.48556C10.1965 7.40381 9.80487 7.0842 9.70973 6.41405C9.60499 5.67763 9.83733 4.35721 11.5382 2.26134C12.4668 1.11767 13.3696 0.513058 14.1477 0.513058V0.514531ZM14.1477 -0.00244141C13.3615 -0.00244141 12.3458 0.448253 11.1369 1.93657C7.48593 6.43468 10.0431 7.91269 10.0306 7.91637C6.96446 8.80008 4.63519 11.2303 4.63519 11.2303C-1.00286 16.8603 1.11178 24.0375 1.11178 24.0375C1.11178 24.0375 2.88197 31.9954 13.8557 31.9954C14.4649 31.9954 15.1041 31.9708 15.7734 31.9217C28.456 30.9378 31.101 22.8585 31.275 19.8178C31.4107 17.4487 27.6609 15.8153 27.4758 15.7394C27.4715 15.7372 27.4681 15.7336 27.4662 15.7291C24.2946 7.79118 18.8712 7.01056 18.8712 7.01056C18.745 6.97873 18.6155 6.96217 18.4854 6.96122C18.3048 6.96076 18.1261 6.99822 17.9609 7.07117C17.7957 7.14412 17.6478 7.25093 17.5266 7.38467C17.4632 7.4544 17.4064 7.52984 17.3569 7.61001C17.4043 7.52845 17.4613 7.4528 17.5266 7.38467C18.5769 6.20638 21.9144 5.21662 19.3772 3.59354C19.0239 3.35952 18.6099 3.23359 18.186 3.23121C16.0352 3.23121 14.0555 6.46634 13.7089 7.06064C13.7073 7.0633 13.705 7.06551 13.7023 7.06705C13.6996 7.0686 13.6965 7.06943 13.6934 7.06948C13.6907 7.0694 13.688 7.06875 13.6855 7.06757C13.6831 7.06638 13.6809 7.06468 13.6792 7.06259C13.6774 7.0605 13.6761 7.05806 13.6754 7.05544C13.6747 7.05282 13.6745 7.05007 13.6749 7.04738L13.6838 7.00467C13.9089 5.94735 14.4571 4.98581 15.2526 4.25264C16.9682 2.64207 16.2402 1.38646 16.0529 1.12208C16.0286 1.08821 16.005 1.05433 15.9791 1.01972C15.8449 0.81573 15.2032 -0.000968236 14.1448 -0.000968236L14.1477 -0.00244141Z" fill="#410100"/>
<path d="M7.69781 20.9727C7.69781 20.9727 8.58291 22.0817 13.0084 21.2959C13.0084 21.2959 12.8247 22.8365 10.3531 22.8594C7.88147 22.8822 7.69781 20.9727 7.69781 20.9727Z" fill="#B26E14"/>
<path d="M7.89328 21.9287C7.59825 21.5097 7.6366 20.9492 7.93458 20.5332C8.29895 20.025 9.04095 19.24 10.2019 19.0986C11.292 18.9668 12.1137 19.6981 12.5769 20.2651C12.925 20.6922 13.167 21.3859 12.8874 21.8617C12.5526 22.4346 11.6564 22.9663 10.0957 22.8463C8.79755 22.7483 8.18241 22.3396 7.89328 21.9287Z" stroke="#410100" stroke-miterlimit="10"/>
<path d="M17.6942 23.7301C18.7415 23.7301 19.5905 22.8824 19.5905 21.8367C19.5905 20.791 18.7415 19.9434 17.6942 19.9434C16.6469 19.9434 15.7979 20.791 15.7979 21.8367C15.7979 22.8824 16.6469 23.7301 17.6942 23.7301Z" fill="#FFB8FF"/>
<path d="M3.76949 23.339C4.69418 23.339 5.44379 22.4913 5.44379 21.4456C5.44379 20.3999 4.69418 19.5522 3.76949 19.5522C2.8448 19.5522 2.09518 20.3999 2.09518 21.4456C2.09518 22.4913 2.8448 23.339 3.76949 23.339Z" fill="#FFB8FF"/>
</g>
<defs>
<clipPath id="clip0_373:772">
<rect width="30.5564" height="32" fill="white" transform="translate(0.721802)"/>
</clipPath>
</defs>
</svg>
