<svg width="630" height="450" viewBox="0 0 630 450" fill="none" xmlns="http://www.w3.org/2000/svg">
<g clip-path="url(#clip0_162:613)">
<path d="M602.794 417.777H128.61C121.397 417.769 114.482 415.034 109.381 410.172C104.281 405.31 101.412 398.717 101.404 391.841V150.56C101.412 143.684 104.281 137.091 109.381 132.229C114.482 127.367 121.397 124.632 128.61 124.624H602.794C610.007 124.632 616.922 127.367 622.023 132.229C627.123 137.091 629.992 143.684 630 150.56V391.841C629.992 398.717 627.123 405.31 622.023 410.172C616.922 415.034 610.007 417.769 602.794 417.777Z" fill="#F6EBFE"/>
<path d="M602.794 417.777H128.61C121.397 417.769 114.482 415.034 109.381 410.172C104.281 405.31 101.412 398.717 101.404 391.841V150.56C101.412 143.684 104.281 137.091 109.381 132.229C114.482 127.367 121.397 124.632 128.61 124.624H602.794C610.007 124.632 616.922 127.367 622.023 132.229C627.123 137.091 629.992 143.684 630 150.56V391.841C629.992 398.717 627.123 405.31 622.023 410.172C616.922 415.034 610.007 417.769 602.794 417.777ZM128.61 126.196C121.834 126.203 115.338 128.772 110.547 133.34C105.755 137.908 103.06 144.1 103.053 150.56V391.841C103.06 398.301 105.755 404.493 110.547 409.061C115.338 413.629 121.834 416.198 128.61 416.205H602.794C609.57 416.198 616.066 413.629 620.857 409.061C625.648 404.493 628.344 398.301 628.351 391.841V150.56C628.344 144.1 625.648 137.908 620.857 133.34C616.066 128.772 609.57 126.203 602.794 126.196H128.61Z" fill="#F2F2F2"/>
<path d="M602.794 398.914H128.61C126.643 398.912 124.757 398.166 123.366 396.84C121.975 395.514 121.192 393.716 121.19 391.841V150.56C121.192 148.684 121.975 146.887 123.366 145.56C124.757 144.234 126.643 143.488 128.61 143.486H602.794C604.761 143.488 606.647 144.234 608.038 145.56C609.429 146.887 610.212 148.684 610.214 150.56V391.841C610.212 393.716 609.429 395.514 608.038 396.84C606.647 398.166 604.761 398.912 602.794 398.914ZM128.61 145.058C127.08 145.06 125.613 145.64 124.531 146.671C123.449 147.703 122.841 149.101 122.839 150.56V391.841C122.841 393.3 123.449 394.698 124.531 395.729C125.613 396.761 127.08 397.341 128.61 397.343H602.794C604.324 397.341 605.791 396.761 606.873 395.729C607.955 394.698 608.563 393.3 608.565 391.841V150.56C608.563 149.101 607.955 147.703 606.873 146.671C605.791 145.64 604.324 145.06 602.794 145.058H128.61Z" fill="white"/>
<g filter="url(#filter0_dd_162:613)">
<path d="M482.109 400.065L23.7547 284.236C16.7847 282.466 10.8354 278.134 7.21225 272.188C3.58906 266.242 2.58779 259.169 4.42811 252.52L69.2796 19.294C71.1357 12.6494 75.6807 6.97787 81.9177 3.52382C88.1546 0.0697814 95.5741 -0.884741 102.548 0.869671L560.902 116.699C567.872 118.468 573.822 122.801 577.445 128.747C581.068 134.692 582.069 141.765 580.229 148.414L515.377 381.64C513.521 388.285 508.976 393.956 502.739 397.41C496.502 400.865 489.083 401.819 482.109 400.065Z" fill="#F4EAFE"/>
</g>
<path d="M482.109 400.065L23.7547 284.236C16.7847 282.466 10.8354 278.134 7.21225 272.188C3.58906 266.242 2.58779 259.169 4.42811 252.52L69.2796 19.294C71.1357 12.6494 75.6808 6.97787 81.9177 3.52382C88.1546 0.0697815 95.5741 -0.884741 102.548 0.869671L560.902 116.699C567.872 118.468 573.822 122.801 577.445 128.747C581.068 134.692 582.069 141.765 580.229 148.414L515.377 381.64C513.521 388.285 508.976 393.956 502.739 397.411C496.502 400.865 489.083 401.819 482.109 400.065ZM102.126 2.38906C95.5742 0.741008 88.6044 1.63769 82.7455 4.88239C76.8866 8.1271 72.617 13.4548 70.8734 19.6968L6.02192 252.923C4.29317 259.169 5.23377 265.813 8.63737 271.399C12.041 276.984 17.6296 281.054 24.1772 282.716L482.531 398.545C489.083 400.193 496.053 399.297 501.911 396.052C507.77 392.807 512.04 387.479 513.784 381.238L578.635 148.011C580.364 141.766 579.423 135.121 576.02 129.536C572.616 123.95 567.027 119.88 560.48 118.218L102.126 2.38906Z" fill="#E6E6E6"/>
<path d="M486.871 380.964L28.5167 265.135C26.6158 264.653 24.9933 263.471 24.0052 261.849C23.017 260.228 22.744 258.299 23.2458 256.485L88.0974 23.2592C88.6036 21.447 89.8431 19.9003 91.5441 18.9583C93.2451 18.0162 95.2686 17.7559 97.1706 18.2344L555.525 134.063C557.425 134.546 559.048 135.728 560.036 137.349C561.024 138.971 561.297 140.9 560.795 142.713L495.944 375.939C495.438 377.751 494.198 379.298 492.497 380.24C490.796 381.182 488.773 381.442 486.871 380.964ZM96.7482 19.7538C95.2688 19.3816 93.6949 19.5841 92.3719 20.3167C91.049 21.0494 90.0849 22.2525 89.6912 23.6619L24.8396 256.888C24.4492 258.299 24.6616 259.799 25.4302 261.06C26.1988 262.321 27.4607 263.24 28.9392 263.616L487.293 379.445C488.773 379.817 490.346 379.614 491.669 378.882C492.992 378.149 493.956 376.946 494.35 375.536L559.202 142.31C559.592 140.9 559.38 139.399 558.611 138.138C557.843 136.877 556.581 135.958 555.102 135.583L96.7482 19.7538Z" fill="white"/>
<path d="M501.39 450H27.2059C19.9929 449.992 13.0777 447.257 7.97742 442.395C2.87709 437.533 0.00814774 430.941 0 424.064V182.783C0.00814774 175.907 2.87709 169.314 7.97742 164.452C13.0777 159.59 19.9929 156.855 27.2059 156.847H501.39C508.603 156.855 515.518 159.59 520.619 164.452C525.719 169.314 528.588 175.907 528.596 182.783V424.064C528.588 430.941 525.719 437.533 520.619 442.395C515.518 447.257 508.603 449.992 501.39 450Z" fill="white"/>
<path d="M372.559 429.566H66.3447C65.9613 429.567 65.5782 429.558 65.2004 429.538L210.026 351.782C212.784 350.272 218.97 349.74 223.845 350.595C225.181 350.791 226.476 351.192 227.677 351.782L324.873 403.962L329.53 406.459L372.559 429.566Z" fill="#E6E6E6"/>
<path d="M469.167 429.566H204.316L255.639 406.459L259.332 404.794L326.211 374.682C330.595 372.708 341.143 372.586 346.298 374.31C346.644 374.427 346.965 374.551 347.261 374.682L469.167 429.566Z" fill="#E6E6E6"/>
<path d="M27.206 158.419C20.4302 158.426 13.9341 160.996 9.14289 165.563C4.35168 170.131 1.65661 176.323 1.64893 182.783V424.064C1.65661 430.524 4.35168 436.717 9.14289 441.284C13.9341 445.852 20.4302 448.421 27.206 448.428H501.39C508.166 448.421 514.662 445.852 519.453 441.284C524.245 436.717 526.94 430.524 526.947 424.064V182.783C526.94 176.323 524.245 170.131 519.453 165.563C514.662 160.996 508.166 158.426 501.39 158.419H27.206Z" fill="#3F3D56"/>
<path d="M501.39 431.138H27.2059C25.2388 431.136 23.3528 430.39 21.9618 429.064C20.5708 427.738 19.7884 425.94 19.7861 424.064V182.783C19.7884 180.908 20.5708 179.11 21.9618 177.784C23.3528 176.458 25.2388 175.712 27.2059 175.709H501.39C503.358 175.712 505.243 176.458 506.634 177.784C508.025 179.11 508.808 180.908 508.81 182.783V424.064C508.808 425.94 508.025 427.738 506.634 429.064C505.243 430.39 503.358 431.136 501.39 431.138ZM27.2059 177.281C25.6759 177.283 24.209 177.863 23.1271 178.895C22.0452 179.926 21.4367 181.324 21.435 182.783V424.064C21.4367 425.523 22.0452 426.921 23.1271 427.953C24.209 428.984 25.6759 429.564 27.2059 429.566H501.39C502.92 429.564 504.387 428.984 505.469 427.953C506.551 426.921 507.16 425.523 507.161 424.064V182.783C507.16 181.324 506.551 179.926 505.469 178.895C504.387 177.863 502.92 177.283 501.39 177.281H27.2059Z" fill="#CCCCCC"/>
<path d="M395.736 219.874C423.921 219.874 446.77 198.092 446.77 171.222C446.77 144.353 423.921 122.571 395.736 122.571C367.55 122.571 344.702 144.353 344.702 171.222C344.702 198.092 367.55 219.874 395.736 219.874Z" fill="#FF6584"/>
<path d="M417.071 348.354C452.769 348.354 481.708 313.822 481.708 271.224C481.708 228.627 452.769 194.095 417.071 194.095C381.373 194.095 352.434 228.627 352.434 271.224C352.434 313.822 381.373 348.354 417.071 348.354Z" fill="#F2F2F2"/>
<path d="M417.249 255.715H417.427L420.623 430.416H413.875L417.249 255.715Z" fill="#CCCCCC"/>
<path d="M428.274 371.373C428.471 371.73 428.511 372.148 428.386 372.534C428.26 372.92 427.979 373.243 427.604 373.431L418.333 378.084L416.844 375.387L426.115 370.735C426.49 370.546 426.928 370.508 427.333 370.627C427.738 370.747 428.076 371.015 428.274 371.373Z" fill="#CCCCCC"/>
<path d="M231.241 348.354C266.94 348.354 295.879 313.822 295.879 271.224C295.879 228.627 266.94 194.095 231.241 194.095C195.543 194.095 166.604 228.627 166.604 271.224C166.604 313.822 195.543 348.354 231.241 348.354Z" fill="#F2F2F2"/>
<path d="M242.444 374.261V374.261C242.246 373.904 241.908 373.635 241.503 373.516C241.098 373.396 240.66 373.435 240.285 373.623L233.813 376.871L231.596 255.715H231.419L228.045 430.416H234.793L233.876 380.283L241.774 376.319C242.149 376.131 242.43 375.808 242.556 375.422C242.682 375.036 242.641 374.619 242.444 374.261Z" fill="#CCCCCC"/>
<path d="M323.932 93.4766C369.165 93.4766 405.93 174.728 405.93 228.704C405.93 282.679 369.262 326.435 324.028 326.435C278.795 326.435 242.126 282.679 242.126 228.704C242.126 174.728 278.698 93.4766 323.932 93.4766Z" fill="#6C63FF"/>
<path d="M338.222 358.476C338.099 358.252 337.93 358.053 337.725 357.891C337.521 357.729 337.285 357.607 337.031 357.532C336.777 357.456 336.51 357.43 336.245 357.453C335.98 357.476 335.723 357.549 335.487 357.667L327.287 361.783L324.478 208.265H324.253L319.978 429.631H328.528L327.366 366.107L337.374 361.084C337.61 360.965 337.818 360.804 337.988 360.609C338.158 360.414 338.286 360.189 338.365 359.947C338.444 359.705 338.472 359.451 338.447 359.198C338.423 358.946 338.346 358.7 338.222 358.476Z" fill="#3F3D56"/>
<path d="M503.039 448.428H28.8548C21.6419 448.421 14.7267 445.686 9.62634 440.823C4.52602 435.961 1.65707 429.369 1.64893 422.493V181.211C1.65707 174.335 4.52602 167.743 9.62634 162.88C14.7267 158.018 21.6419 155.283 28.8548 155.275H503.039C510.252 155.283 517.167 158.018 522.268 162.88C527.368 167.743 530.237 174.335 530.245 181.211V422.493C530.237 429.369 527.368 435.961 522.268 440.823C517.167 445.686 510.252 448.421 503.039 448.428Z" fill="white"/>
<path d="M374.208 427.994H67.9936C67.6102 427.996 67.2272 427.986 66.8494 427.966L211.675 350.211C214.432 348.7 220.619 348.168 225.494 349.023C226.83 349.219 228.124 349.62 229.326 350.211L326.522 402.39L331.179 404.887L374.208 427.994Z" fill="#FDECFE"/>
<path d="M470.816 427.994H205.965L257.288 404.887L260.981 403.223L327.86 373.11C332.244 371.137 342.792 371.014 347.947 372.738C348.293 372.856 348.614 372.98 348.91 373.11L470.816 427.994Z" fill="#FAD9FE"/>
<path d="M503.039 448.428H28.8548C21.6419 448.421 14.7267 445.686 9.62634 440.823C4.52602 435.961 1.65707 429.369 1.64893 422.493V181.211C1.65707 174.335 4.52602 167.743 9.62634 162.88C14.7267 158.018 21.6419 155.283 28.8548 155.275H503.039C510.252 155.283 517.167 158.018 522.268 162.88C527.368 167.743 530.237 174.335 530.245 181.211V422.493C530.237 429.369 527.368 435.961 522.268 440.823C517.167 445.686 510.252 448.421 503.039 448.428ZM28.8548 156.847C22.079 156.855 15.5829 159.424 10.7917 163.991C6.00052 168.559 3.30545 174.752 3.29777 181.211V422.493C3.30545 428.952 6.00052 435.145 10.7917 439.712C15.5829 444.28 22.079 446.849 28.8548 446.857H503.039C509.815 446.849 516.311 444.28 521.102 439.712C525.894 435.145 528.589 428.952 528.596 422.493V181.211C528.589 174.752 525.894 168.559 521.102 163.991C516.311 159.424 509.815 156.855 503.039 156.847H28.8548Z" fill="#150247"/>
<path d="M503.159 430.013H28.975C27.0078 430.011 25.1219 429.265 23.7309 427.939C22.3399 426.613 21.5574 424.815 21.5552 422.94V181.658C21.5574 179.783 22.3399 177.985 23.7309 176.659C25.1219 175.333 27.0078 174.587 28.975 174.585H503.159C505.127 174.587 507.013 175.333 508.404 176.659C509.794 177.985 510.577 179.783 510.579 181.658V422.94C510.577 424.815 509.794 426.613 508.404 427.939C507.013 429.265 505.127 430.011 503.159 430.013ZM28.975 176.157C27.4449 176.158 25.9781 176.739 24.8962 177.77C23.8143 178.801 23.2057 180.2 23.204 181.658V422.94C23.2057 424.398 23.8143 425.797 24.8962 426.828C25.9781 427.859 27.4449 428.44 28.975 428.441H503.159C504.689 428.44 506.156 427.859 507.238 426.828C508.32 425.797 508.929 424.398 508.93 422.94V181.658C508.929 180.2 508.32 178.801 507.238 177.77C506.156 176.739 504.689 176.158 503.159 176.157H28.975Z" fill="#150247"/>
<path d="M397.385 218.302C425.57 218.302 448.419 196.52 448.419 169.65C448.419 142.781 425.57 120.999 397.385 120.999C369.199 120.999 346.351 142.781 346.351 169.65C346.351 196.52 369.199 218.302 397.385 218.302Z" fill="#99349F"/>
<path d="M418.72 346.782C454.418 346.782 483.357 312.25 483.357 269.653C483.357 227.055 454.418 192.523 418.72 192.523C383.022 192.523 354.083 227.055 354.083 269.653C354.083 312.25 383.022 346.782 418.72 346.782Z" fill="#FDECFE"/>
<path d="M418.898 254.143H419.075L422.272 428.844H415.524L418.898 254.143Z" fill="#AF72D3"/>
<path d="M232.89 346.782C268.588 346.782 297.528 312.25 297.528 269.653C297.528 227.055 268.588 192.523 232.89 192.523C197.192 192.523 168.253 227.055 168.253 269.653C168.253 312.25 197.192 346.782 232.89 346.782Z" fill="#FDECFE"/>
<path d="M244.093 372.689V372.689C243.895 372.332 243.557 372.064 243.152 371.944C242.747 371.824 242.309 371.863 241.934 372.051L235.462 375.299L233.245 254.143H233.068L229.694 428.845H236.442L235.524 378.712L243.423 374.747C243.798 374.559 244.079 374.236 244.205 373.85C244.33 373.465 244.29 373.047 244.093 372.689Z" fill="#AF72D3"/>
<path d="M325.58 91.9043C370.814 91.9043 407.579 173.156 407.579 227.131C407.579 281.107 370.91 324.862 325.677 324.862C280.444 324.862 243.775 281.107 243.775 227.131C243.775 173.156 280.347 91.9043 325.58 91.9043Z" fill="#6411AD"/>
<path d="M310.133 442.014C310.133 442.014 309.513 429.713 296.812 431.143L310.133 442.014Z" fill="#6411AD"/>
<path d="M313.722 430.308C310.211 430.308 307.365 427.612 307.365 424.285C307.365 420.959 310.211 418.262 313.722 418.262C317.232 418.262 320.078 420.959 320.078 424.285C320.078 427.612 317.232 430.308 313.722 430.308Z" fill="#6411AD"/>
<path d="M312.962 434.428H314.756V446.329H312.962V434.428Z" fill="#1C0353"/>
<path d="M250.596 423.184C222.225 423.184 199.225 401.392 199.225 374.51C199.225 347.629 222.225 325.837 250.596 325.837C278.967 325.837 301.966 347.629 301.966 374.51C301.966 401.392 278.967 423.184 250.596 423.184Z" fill="#DB9DF6"/>
<path d="M282.936 378.417C281.661 376.97 280.065 375.806 278.262 375.007C276.46 374.208 274.494 373.794 272.504 373.794C270.513 373.794 268.548 374.208 266.745 375.007C264.942 375.806 263.347 376.97 262.071 378.417C259.909 376.462 258.408 373.944 257.757 371.18C257.107 368.417 257.335 365.533 258.414 362.892C259.494 360.252 261.375 357.974 263.82 356.347C266.266 354.72 269.166 353.816 272.153 353.75C275.141 353.685 278.081 354.46 280.604 355.978C283.126 357.496 285.117 359.689 286.325 362.279C287.532 364.869 287.901 367.74 287.387 370.529C286.872 373.318 285.496 375.899 283.432 377.947C283.271 378.108 283.106 378.264 282.936 378.417Z" fill="white"/>
<path d="M242.143 378.417C240.867 376.97 239.271 375.806 237.468 375.007C235.666 374.208 233.7 373.794 231.71 373.794C229.72 373.794 227.754 374.208 225.951 375.007C224.148 375.806 222.553 376.97 221.277 378.417C219.115 376.462 217.614 373.944 216.963 371.18C216.313 368.417 216.541 365.533 217.62 362.892C218.7 360.252 220.581 357.974 223.026 356.347C225.472 354.72 228.372 353.816 231.359 353.75C234.347 353.685 237.288 354.46 239.81 355.978C242.333 357.496 244.323 359.689 245.531 362.279C246.738 364.869 247.108 367.74 246.593 370.529C246.078 373.318 244.702 375.899 242.638 377.947C242.477 378.108 242.312 378.264 242.143 378.417Z" fill="white"/>
<path d="M277.658 368.113C274.787 368.113 272.461 365.908 272.461 363.188C272.461 360.468 274.787 358.264 277.658 358.264C280.528 358.264 282.855 360.468 282.855 363.188C282.855 365.908 280.528 368.113 277.658 368.113Z" fill="#1C0353"/>
<path d="M236.865 368.113C233.995 368.113 231.668 365.908 231.668 363.188C231.668 360.468 233.995 358.264 236.865 358.264C239.736 358.264 242.062 360.468 242.062 363.188C242.062 365.908 239.736 368.113 236.865 368.113Z" fill="#1C0353"/>
<path d="M287.613 392.405C284.275 392.405 281.569 389.841 281.569 386.678C281.569 383.516 284.275 380.952 287.613 380.952C290.95 380.952 293.656 383.516 293.656 386.678C293.656 389.841 290.95 392.405 287.613 392.405Z" fill="#9442CD"/>
<path d="M218.111 392.405C214.774 392.405 212.068 389.841 212.068 386.678C212.068 383.516 214.774 380.952 218.111 380.952C221.449 380.952 224.155 383.516 224.155 386.678C224.155 389.841 221.449 392.405 218.111 392.405Z" fill="#9442CD"/>
<path d="M252.862 375.226L257.395 393.837L249.841 386.679L252.862 375.226Z" fill="#9442CD"/>
<path d="M229.572 446.804L234.718 442.712L234.598 446.804H236.196L236.324 442.477L243.272 446.804H246.181L236.376 440.698L236.756 427.876L237.04 418.193L235.445 418.151L235.157 427.876L234.778 440.687L227.087 446.804H229.572Z" fill="#1C0353"/>
<path d="M253.748 446.804L258.894 442.712L258.774 446.804H260.368L260.496 442.477L267.444 446.804H270.353L260.552 440.698L260.932 427.876L261.215 418.193L259.617 418.151L259.33 427.876L258.954 440.687L251.263 446.804H253.748Z" fill="#1C0353"/>
<path d="M249.84 322.258C251.25 322.258 252.493 323.295 253.325 324.889C254.057 322.493 255.597 320.826 257.395 320.826C257.517 320.838 257.638 320.857 257.757 320.884C258.449 318.326 260.055 316.532 261.927 316.532C264.431 316.532 266.46 319.736 266.46 323.69C266.46 327.643 264.431 330.847 261.927 330.847C261.805 330.836 261.684 330.817 261.564 330.79C260.873 333.348 259.267 335.142 257.395 335.142C255.985 335.142 254.742 334.105 253.91 332.511C253.178 334.907 251.638 336.574 249.84 336.574C247.337 336.574 245.308 333.369 245.308 329.416C245.308 325.463 247.337 322.258 249.84 322.258Z" fill="#9442CD"/>
<path d="M299.03 376.025L327.328 371.676C328.754 371.457 330.206 371.237 331.637 371.428C333.067 371.619 334.499 372.286 335.229 373.468C335.579 374.035 335.749 374.687 335.718 375.344C335.687 376.001 335.456 376.636 335.054 377.172C334.651 377.708 334.093 378.122 333.448 378.365C332.803 378.608 332.097 378.669 331.416 378.541C332.961 378.494 334.585 378.463 335.955 379.139C337.326 379.815 338.297 381.459 337.628 382.779C337.428 383.143 337.157 383.469 336.829 383.738C335.797 384.614 334.525 385.195 333.159 385.415C331.793 385.634 330.39 385.483 329.111 384.978C330.153 386.393 332.22 386.604 334.009 386.931C335.797 387.259 337.864 388.217 337.93 389.942C338.005 391.88 335.571 392.91 333.567 393.304C322.868 395.39 311.762 394.533 301.561 390.833C300.414 390.459 299.329 389.934 298.337 389.273C297.226 388.473 296.381 387.387 295.904 386.143C295.427 384.9 295.338 383.553 295.648 382.264C295.958 380.974 296.654 379.796 297.652 378.872C298.65 377.947 299.908 377.314 301.276 377.05" fill="#9442CD"/>
<path d="M176.884 398.002C181.555 388.646 188.952 380.751 198.205 375.249C199.209 374.605 200.304 374.099 201.457 373.745C202.8 373.384 204.225 373.397 205.56 373.783C206.895 374.169 208.085 374.911 208.986 375.921C209.888 376.931 210.463 378.165 210.643 379.477C210.823 380.789 210.601 382.122 210.002 383.317L212.217 382.231C207.771 390.246 203.325 398.261 198.878 406.275C198.206 407.487 197.519 408.718 196.498 409.687C195.478 410.656 194.054 411.339 192.619 411.181C192.049 411.121 191.503 410.932 191.027 410.63C190.55 410.328 190.157 409.922 189.88 409.446C189.604 408.971 189.452 408.439 189.437 407.896C189.422 407.353 189.544 406.815 189.795 406.326C189.17 407.159 188.35 407.843 187.398 408.323C186.004 408.955 184.034 408.702 183.322 407.403C183.135 407.032 183.024 406.631 182.994 406.221C182.875 404.913 183.149 403.6 183.785 402.434C184.42 401.268 185.392 400.296 186.586 399.631C184.766 399.57 183.346 401.009 181.995 402.166C180.644 403.323 178.593 404.313 177.098 403.327C175.419 402.219 176.013 399.756 176.884 398.002Z" fill="#9442CD"/>
<path d="M339.871 356.904C339.747 356.68 339.578 356.481 339.374 356.319C339.169 356.157 338.934 356.035 338.68 355.96C338.426 355.885 338.159 355.858 337.894 355.881C337.629 355.905 337.372 355.977 337.136 356.095L328.936 360.211L326.127 206.693H325.902L321.627 428.059H330.177L329.015 364.535L339.023 359.512C339.258 359.394 339.467 359.233 339.637 359.038C339.807 358.843 339.935 358.618 340.014 358.376C340.093 358.133 340.121 357.879 340.096 357.626C340.072 357.374 339.995 357.128 339.871 356.904Z" fill="#1C0353"/>
</g>
<defs>
<filter id="filter0_dd_162:613" x="-52.4734" y="-32.0668" width="689.604" height="526.991" filterUnits="userSpaceOnUse" color-interpolation-filters="sRGB">
<feFlood flood-opacity="0" result="BackgroundImageFix"/>
<feColorMatrix in="SourceAlpha" type="matrix" values="0 0 0 0 0 0 0 0 0 0 0 0 0 0 0 0 0 0 127 0" result="hardAlpha"/>
<feOffset dy="5.03108"/>
<feGaussianBlur stdDeviation="18.5541"/>
<feColorMatrix type="matrix" values="0 0 0 0 0 0 0 0 0 0 0 0 0 0 0 0 0 0 0.07 0"/>
<feBlend mode="normal" in2="BackgroundImageFix" result="effect1_dropShadow_162:613"/>
<feColorMatrix in="SourceAlpha" type="matrix" values="0 0 0 0 0 0 0 0 0 0 0 0 0 0 0 0 0 0 127 0" result="hardAlpha"/>
<feOffset dy="38"/>
<feGaussianBlur stdDeviation="28"/>
<feColorMatrix type="matrix" values="0 0 0 0 0 0 0 0 0 0 0 0 0 0 0 0 0 0 0.14 0"/>
<feBlend mode="normal" in2="effect1_dropShadow_162:613" result="effect2_dropShadow_162:613"/>
<feBlend mode="normal" in="SourceGraphic" in2="effect2_dropShadow_162:613" result="shape"/>
</filter>
<clipPath id="clip0_162:613">
<rect width="630" height="450" fill="white"/>
</clipPath>
</defs>
</svg>
