<svg width="610" height="517" viewBox="0 0 610 517" fill="none" xmlns="http://www.w3.org/2000/svg">
<g clip-path="url(#clip0_161:492)">
<g filter="url(#filter0_i_161:492)">
<path d="M588.652 216.442C558.146 255.421 500.584 264.347 452.957 250.771C437.373 246.22 422.339 239.966 408.127 232.123C399.872 227.644 391.814 222.73 383.921 217.494C381.979 216.212 380.037 214.909 378.115 213.581C376.805 212.686 375.499 211.78 374.198 210.864C357.898 199.406 342.238 186.836 326.84 174.338C288.402 143.14 248.911 110.982 201.684 96.0969C191.955 93.0317 179.368 91.5978 173.351 99.833C168.131 106.983 171.317 117.106 175.734 124.776C192.12 153.184 221.861 171.122 251.63 184.915C281.398 198.708 312.93 209.884 338.808 230.051C364.685 250.218 384.441 282.271 379.148 314.627C374.586 342.509 351.803 365.163 325.313 375.036C298.823 384.902 269.279 383.528 241.742 377.121C214.205 370.708 188.064 359.519 161.489 349.876C145.466 344.055 124.519 340.03 113.887 353.349C104.908 364.604 110.069 382.357 121.003 391.723C131.938 401.09 146.737 404.227 160.857 407.043C204.699 415.791 248.542 424.537 292.385 433.281C305.834 435.958 319.599 438.76 331.316 445.89C343.034 453.014 352.487 465.459 352.152 479.16C351.816 492.664 341.922 504.596 329.796 510.575C317.677 516.548 303.681 517.468 290.18 516.824C239.583 514.403 94.5268 434.083 59.7357 423.816C37.38 417.225 12.9375 407.543 3.51045 386.244C-8.22705 359.73 11.0876 327.65 37.4523 315.541C63.8106 303.425 94.3687 306.108 123.097 310.187C151.825 314.265 181.501 319.455 209.466 311.706C237.43 303.958 263.051 278.699 260.293 249.837C257.89 224.723 235.251 205.799 211.427 197.459C192.778 190.927 172.937 189.151 153.346 186.211C147.908 185.402 142.49 184.494 137.125 183.376C123.385 180.5 109.982 176.201 97.1337 170.549C83.6507 164.632 70.8416 157.286 58.9261 148.639C49.4224 141.753 40.541 134.047 32.3837 125.611C31.1394 124.322 29.9083 123.004 28.6904 121.658C27.5319 120.369 26.3863 119.053 25.2674 117.711C10.7058 100.326 -0.0510049 78.9161 3.17491 56.8547C6.39376 34.8524 23.5558 16.5336 43.9894 7.73269C55.7992 2.64815 68.5373 0.372282 81.4333 0.0433987C90.8628 -0.144906 100.29 0.533255 109.595 2.06932C152.654 8.94955 192.113 29.8534 229.379 52.4871C266.639 75.1208 302.95 99.9646 343.455 116.1C383.961 132.241 430.068 139.075 471.159 124.48C512.25 109.89 546.007 70.0823 543.999 26.5579C571.253 50.0073 594.412 79.4818 604.668 113.922C614.924 148.363 610.803 188.132 588.652 216.442Z" fill="#070027"/>
</g>
<path d="M392.287 171.461C394.933 171.461 397.078 169.318 397.078 166.674C397.078 164.03 394.933 161.887 392.287 161.887C389.641 161.887 387.496 164.03 387.496 166.674C387.496 169.318 389.641 171.461 392.287 171.461Z" fill="#1551C1"/>
<path d="M561.469 110.929C565.56 110.929 568.876 107.616 568.876 103.528C568.876 99.4406 565.56 96.127 561.469 96.127C557.378 96.127 554.062 99.4406 554.062 103.528C554.062 107.616 557.378 110.929 561.469 110.929Z" fill="#EA698B"/>
<path d="M75.6455 339.112C77.1571 339.112 78.3824 337.888 78.3824 336.377C78.3824 334.867 77.1571 333.643 75.6455 333.643C74.134 333.643 72.9087 334.867 72.9087 336.377C72.9087 337.888 74.134 339.112 75.6455 339.112Z" fill="#EA698B"/>
<path d="M154.202 179.173C154.203 181.545 153.916 183.908 153.346 186.211C147.908 185.402 142.49 184.494 137.125 183.376C123.385 180.5 109.982 176.201 97.1337 170.55C99.1999 163.884 103.59 158.179 109.506 154.472C115.422 150.764 122.473 149.299 129.379 150.342C136.284 151.386 142.586 154.868 147.14 160.158C151.695 165.448 154.2 172.195 154.202 179.173Z" fill="#EA698B"/>
<path d="M514.072 154.342C515.618 154.342 516.871 153.09 516.871 151.545C516.871 150.001 515.618 148.749 514.072 148.749C512.526 148.749 511.273 150.001 511.273 151.545C511.273 153.09 512.526 154.342 514.072 154.342Z" fill="white"/>
<path d="M257.994 462.177C259.54 462.177 260.793 460.924 260.793 459.38C260.793 457.835 259.54 456.583 257.994 456.583C256.448 456.583 255.195 457.835 255.195 459.38C255.195 460.924 256.448 462.177 257.994 462.177Z" fill="white"/>
<path d="M298.15 500.985C299.696 500.985 300.949 499.733 300.949 498.188C300.949 496.643 299.696 495.391 298.15 495.391C296.604 495.391 295.351 496.643 295.351 498.188C295.351 499.733 296.604 500.985 298.15 500.985Z" fill="white"/>
<path d="M49.9719 390.48C51.5178 390.48 52.771 389.228 52.771 387.683C52.771 386.138 51.5178 384.886 49.9719 384.886C48.426 384.886 47.1729 386.138 47.1729 387.683C47.1729 389.228 48.426 390.48 49.9719 390.48Z" fill="white"/>
<path d="M187.556 338.516C189.102 338.516 190.355 337.264 190.355 335.72C190.355 334.175 189.102 332.923 187.556 332.923C186.01 332.923 184.757 334.175 184.757 335.72C184.757 337.264 186.01 338.516 187.556 338.516Z" fill="white"/>
<path d="M173.732 60.9393C175.278 60.9393 176.531 59.6871 176.531 58.1425C176.531 56.5979 175.278 55.3457 173.732 55.3457C172.186 55.3457 170.933 56.5979 170.933 58.1425C170.933 59.6871 172.186 60.9393 173.732 60.9393Z" fill="white"/>
<path d="M342.914 279.975C344.46 279.975 345.713 278.723 345.713 277.179C345.713 275.634 344.46 274.382 342.914 274.382C341.369 274.382 340.115 275.634 340.115 277.179C340.115 278.723 341.369 279.975 342.914 279.975Z" fill="white"/>
<path d="M363.98 328.65C365.526 328.65 366.779 327.398 366.779 325.853C366.779 324.308 365.526 323.056 363.98 323.056C362.434 323.056 361.181 324.308 361.181 325.853C361.181 327.398 362.434 328.65 363.98 328.65Z" fill="white"/>
<path d="M111.675 67.0698C111.696 81.1912 108.357 95.1151 101.933 107.693C101.083 109.351 100.184 110.98 99.2336 112.581C89.8264 128.454 75.7518 141.045 58.9261 148.639C49.4224 141.753 40.5409 134.047 32.3836 125.611C31.1393 124.322 29.9082 123.004 28.6903 121.658C27.5319 120.369 26.3863 119.053 25.2674 117.711C10.7057 100.326 -0.0510607 78.9162 3.17486 56.8547C6.3937 34.8524 23.5558 16.5336 43.9893 7.7327C55.7991 2.64817 68.5372 0.37234 81.4332 0.043457C91.5166 8.9411 99.4657 19.993 104.691 32.3792C105.349 33.9381 105.955 35.5168 106.528 37.1152C109.944 46.7327 111.685 56.8643 111.675 67.0698Z" fill="#1551C1"/>
<path d="M152.49 71.6743C152.49 85.3756 139.1 98.0837 114.783 107.47C109.918 109.351 104.711 111.055 99.2337 112.581C78.7342 118.29 54.3377 121.454 28.6904 121.658C27.532 120.369 26.3864 119.053 25.2675 117.711C25.5439 117.718 25.8203 117.718 26.0968 117.718C53.9494 117.718 80.3735 114.192 101.933 107.694C105.915 106.49 109.734 105.188 113.361 103.786C135.717 95.1632 148.54 83.4549 148.54 71.6743C148.54 59.8938 135.716 48.1921 113.361 39.5622C111.149 38.7071 108.871 37.8915 106.528 37.1153C105.955 35.5169 105.349 33.9383 104.691 32.3794C108.193 33.4713 111.557 34.6377 114.783 35.8787C139.1 45.265 152.49 57.9797 152.49 71.6743Z" fill="white"/>
<path d="M30.2229 22.7889C31.7688 22.7889 33.022 21.5367 33.022 19.9921C33.022 18.4475 31.7688 17.1953 30.2229 17.1953C28.677 17.1953 27.4238 18.4475 27.4238 19.9921C27.4238 21.5367 28.677 22.7889 30.2229 22.7889Z" fill="white"/>
<path d="M88.8114 40.5487C90.3573 40.5487 91.6105 39.2965 91.6105 37.7519C91.6105 36.2073 90.3573 34.9551 88.8114 34.9551C87.2655 34.9551 86.0123 36.2073 86.0123 37.7519C86.0123 39.2965 87.2655 40.5487 88.8114 40.5487Z" fill="white"/>
<path d="M58.5298 93.2331C73.5627 93.2331 85.7494 81.0563 85.7494 66.0355C85.7494 51.0147 73.5627 38.8379 58.5298 38.8379C43.4968 38.8379 31.3102 51.0147 31.3102 66.0355C31.3102 81.0563 43.4968 93.2331 58.5298 93.2331Z" fill="white"/>
<path opacity="0.3" d="M561.207 209.983C555.098 211.785 541.629 213.114 526.818 213.93C512.013 214.739 495.772 215.094 479.736 215.436C451.667 216.041 423.599 216.648 395.534 217.258C391.676 217.343 387.805 217.422 383.921 217.495C381.979 216.212 380.037 214.91 378.115 213.581C381.558 213.601 385.001 213.581 388.417 213.515C403.012 213.226 415.368 212.088 429.442 211.548C451.1 210.713 474.483 211.371 497.056 211.706C519.629 212.048 545.349 211.923 561.207 209.983Z" fill="white"/>
<path opacity="0.3" d="M130.398 417.331L40.9216 342.852L127.847 420.314C128.015 420.597 128.248 420.837 128.528 421.012C128.807 421.187 129.124 421.293 129.453 421.321C129.781 421.349 130.112 421.299 130.417 421.174C130.722 421.049 130.993 420.853 131.207 420.603C131.421 420.352 131.573 420.054 131.649 419.734C131.725 419.413 131.723 419.079 131.644 418.759C131.565 418.439 131.41 418.143 131.194 417.894C130.977 417.646 130.704 417.453 130.398 417.331H130.398Z" fill="white"/>
<path d="M62.4795 135.267C64.0254 135.267 65.2785 134.015 65.2785 132.47C65.2785 130.926 64.0254 129.673 62.4795 129.673C60.9336 129.673 59.6804 130.926 59.6804 132.47C59.6804 134.015 60.9336 135.267 62.4795 135.267Z" fill="#F0F0F0"/>
<path d="M297.562 456.538L309.139 456.538L314.647 411.917L297.56 411.918L297.562 456.538Z" fill="#FFB6B6"/>
<path d="M294.609 452.761L297.867 452.761L310.59 447.591L317.409 452.76H317.41C321.264 452.761 324.959 454.29 327.684 457.013C330.409 459.736 331.94 463.428 331.94 467.279V467.751L294.609 467.752L294.609 452.761Z" fill="#2F2E41"/>
<path d="M210.858 456.538L199.281 456.538L193.773 411.917L210.86 411.918L210.858 456.538Z" fill="#FFB6B6"/>
<path d="M213.811 467.752L176.48 467.751V467.279C176.48 463.428 178.011 459.736 180.736 457.013C183.461 454.29 187.156 452.761 191.01 452.76H191.011L197.83 447.591L210.553 452.761L213.812 452.761L213.811 467.752Z" fill="#2F2E41"/>
<path d="M252.342 114.575L240.619 123.494L209.478 131.734C209.478 131.734 220.637 209.983 215.37 215.245C210.104 220.507 214.854 220.648 213.795 227.484C212.737 234.32 208.52 252.368 208.52 252.368H301.464C301.464 252.368 302.213 241.151 297.631 238.722C293.05 236.293 301.855 224.956 298.11 223.06C294.366 221.165 299.633 204.72 299.633 204.72L311.046 150.883L280.689 127.151L276.072 116.036L252.342 114.575Z" fill="#1551C1"/>
<path d="M266.969 184.497C269.21 184.497 271.026 182.682 271.026 180.444C271.026 178.206 269.21 176.391 266.969 176.391C264.729 176.391 262.913 178.206 262.913 180.444C262.913 182.682 264.729 184.497 266.969 184.497Z" fill="#F2F2F2"/>
<path d="M208.52 252.368L204.687 350.981C204.687 350.981 188.139 423.815 191.013 425.73C193.888 427.645 195.106 439.063 195.106 439.063L211.395 440.977C211.395 440.977 211.395 433.318 215.227 430.446C219.06 427.574 254.513 292.579 254.513 292.579L289.1 423.099C289.1 423.099 289.966 430.446 292.84 430.446C295.715 430.446 296.673 440.978 296.673 440.978H312.962V430.446C312.962 430.446 320.281 428.127 317.407 420.468C314.532 412.809 301.464 252.368 301.464 252.368H208.52Z" fill="#2F2E41"/>
<path d="M264.515 108.699C275.364 108.699 284.158 99.9113 284.158 89.0717C284.158 78.2321 275.364 69.4448 264.515 69.4448C253.667 69.4448 244.873 78.2321 244.873 89.0717C244.873 99.9113 253.667 108.699 264.515 108.699Z" fill="#FFCCC8"/>
<path opacity="0.25" d="M298.11 177.211L301.943 180.084L303.859 166.68L298.11 177.211Z" fill="black"/>
<path d="M211.315 131.659C211.315 131.659 206.524 130.701 203.65 139.318C200.775 147.935 190.235 180.486 190.235 186.231C190.235 191.975 255.874 217.321 255.874 217.321L249.045 193.381L218.981 177.614L211.315 131.659Z" fill="#1551C1"/>
<path d="M258.919 213.772C265.1 213.772 270.11 208.765 270.11 202.59C270.11 196.414 265.1 191.408 258.919 191.408C252.739 191.408 247.728 196.414 247.728 202.59C247.728 208.765 252.739 213.772 258.919 213.772Z" fill="#FFCCC8"/>
<path opacity="0.25" d="M218.105 165.755L218.981 177.614L246.781 192.194L222.054 175.621L218.105 165.755Z" fill="black"/>
<path d="M284.937 167.446H284.576V157.574C284.576 156.824 284.429 156.081 284.141 155.387C283.854 154.694 283.433 154.064 282.902 153.534C282.371 153.003 281.74 152.582 281.046 152.295C280.353 152.008 279.609 151.86 278.858 151.86H257.926C257.175 151.86 256.432 152.008 255.738 152.295C255.044 152.582 254.414 153.003 253.883 153.534C253.352 154.064 252.931 154.694 252.643 155.387C252.356 156.081 252.208 156.824 252.208 157.574V211.732C252.208 212.482 252.356 213.225 252.643 213.919C252.931 214.612 253.352 215.242 253.883 215.772C254.414 216.303 255.044 216.724 255.738 217.011C256.432 217.298 257.175 217.446 257.926 217.446H278.858C279.609 217.446 280.353 217.298 281.046 217.011C281.74 216.724 282.371 216.303 282.902 215.772C283.433 215.242 283.854 214.612 284.141 213.919C284.428 213.225 284.576 212.482 284.576 211.732V174.473H284.937V167.446Z" fill="white"/>
<path d="M311.046 150.883C311.046 150.883 313.92 152.798 315.837 161.414C317.753 170.031 330.209 202.583 325.418 210.242C320.627 217.901 319.213 226.076 302.924 214.587L280.384 193.966L296.673 178.648L303.38 183.435L311.046 150.883Z" fill="#1551C1"/>
<path d="M268.648 175.998C271.294 175.998 273.439 173.855 273.439 171.211C273.439 168.568 271.294 166.424 268.648 166.424C266.002 166.424 263.857 168.568 263.857 171.211C263.857 173.855 266.002 175.998 268.648 175.998Z" fill="#1551C1"/>
<path d="M282.517 192.881C288.698 192.881 293.708 187.874 293.708 181.699C293.708 175.523 288.698 170.517 282.517 170.517C276.336 170.517 271.326 175.523 271.326 181.699C271.326 187.874 276.336 192.881 282.517 192.881Z" fill="#FFCCC8"/>
<path opacity="0.25" d="M217.577 201.546L249.703 215.745L216.684 209.297L217.577 201.546Z" fill="black"/>
<path d="M244.698 92.9831L242.001 82.7273C241.297 80.0514 240.588 77.3213 240.746 74.559C240.904 71.7967 242.077 68.9462 244.406 67.4498C246.735 65.9533 250.29 66.3068 251.789 68.6333C252.074 64.9185 255.456 62.061 259.044 61.0487C262.633 60.0364 266.443 60.4367 270.168 60.6075C273.893 60.7783 277.824 60.6591 281.039 58.7715C281.284 59.5059 281.268 60.3024 280.994 61.0263C280.719 61.7503 280.203 62.3574 279.532 62.7452C280.331 62.9631 281.184 62.8695 281.916 62.4834C282.649 62.0973 283.208 61.4474 283.479 60.6654C283.503 62.8168 282.708 64.8969 281.253 66.4835C282.64 65.7958 284.234 65.6484 285.724 66.07C287.214 66.4916 288.494 67.452 289.315 68.7644C290.955 71.6064 290.036 75.1757 289.076 78.3133L284.15 94.417C283.402 91.9689 283.262 89.3844 282.862 86.8564C282.462 84.3285 281.751 81.7469 280.081 79.8064C278.411 77.866 275.574 76.7422 273.201 77.7057C271.87 78.2462 270.855 79.3429 269.653 80.13C267.186 81.7449 264.049 81.9765 261.119 81.6479C258.189 81.3193 255.333 80.4856 252.403 80.1525C250.569 79.944 248.522 79.9992 247.138 81.2201C246.186 82.2084 245.557 83.4626 245.335 84.8162C244.682 87.5143 244.425 90.2931 244.573 93.0651" fill="#2F2E41"/>
</g>
<defs>
<filter id="filter0_i_161:492" x="0" y="0.0126953" width="610" height="516.987" filterUnits="userSpaceOnUse" color-interpolation-filters="sRGB">
<feFlood flood-opacity="0" result="BackgroundImageFix"/>
<feBlend mode="normal" in="SourceGraphic" in2="BackgroundImageFix" result="shape"/>
<feColorMatrix in="SourceAlpha" type="matrix" values="0 0 0 0 0 0 0 0 0 0 0 0 0 0 0 0 0 0 127 0" result="hardAlpha"/>
<feOffset/>
<feGaussianBlur stdDeviation="16"/>
<feComposite in2="hardAlpha" operator="arithmetic" k2="-1" k3="1"/>
<feColorMatrix type="matrix" values="0 0 0 0 0.392157 0 0 0 0 0.298039 0 0 0 0 0.745098 0 0 0 0.5 0"/>
<feBlend mode="normal" in2="shape" result="effect1_innerShadow_161:492"/>
</filter>
<clipPath id="clip0_161:492">
<rect width="610" height="517" fill="white"/>
</clipPath>
</defs>
</svg>
